<?xml version="1.0" encoding="utf-8" standalone="no"?>
<!DOCTYPE svg PUBLIC "-//W3C//DTD SVG 1.1//EN"
  "http://www.w3.org/Graphics/SVG/1.1/DTD/svg11.dtd">
<svg height="193.231353pt" version="1.1" viewBox="0 0 322.988426 193.231353" width="322.988426pt" xmlns="http://www.w3.org/2000/svg" xmlns:xlink="http://www.w3.org/1999/xlink">
 <metadata>
  <rdf:RDF xmlns:cc="http://creativecommons.org/ns#" xmlns:dc="http://purl.org/dc/elements/1.1/" xmlns:rdf="http://www.w3.org/1999/02/22-rdf-syntax-ns#">
   <cc:Work>
    <dc:type rdf:resource="http://purl.org/dc/dcmitype/StillImage"/>
    <dc:date>1970-02-14T21:38:49.631529</dc:date>
    <dc:format>image/svg+xml</dc:format>
    <dc:creator>
     <cc:Agent>
      <dc:title>Matplotlib v3.4.3, https://matplotlib.org/</dc:title>
     </cc:Agent>
    </dc:creator>
   </cc:Work>
  </rdf:RDF>
 </metadata>
 <defs>
  <style type="text/css">*{stroke-linecap:butt;stroke-linejoin:round;}</style>
 </defs>
 <g id="figure_1">
  <g id="patch_1">
   <path d="M 0 193.231353 
L 322.988426 193.231353 
L 322.988426 0 
L 0 0 
z
" style="fill:none;"/>
  </g>
  <g id="axes_1">
   <g id="patch_2">
    <path d="M 43.268426 163.8 
L 322.268426 163.8 
L 322.268426 0.72 
L 43.268426 0.72 
z
" style="fill:#ffffff;"/>
   </g>
   <g id="PolyCollection_1">
    <defs>
     <path d="M 55.950244 -71.53005 
L 55.950244 -36.844081 
L 75.460734 -47.473652 
L 94.971223 -47.473652 
L 114.481713 -50.270907 
L 133.992202 -51.38981 
L 153.502692 -52.508712 
L 192.523671 -53.627614 
L 231.54465 -52.508712 
L 270.565629 -51.38981 
L 309.586608 -51.38981 
L 309.586608 -56.984321 
L 309.586608 -56.984321 
L 270.565629 -56.984321 
L 231.54465 -55.865419 
L 192.523671 -54.746516 
L 153.502692 -55.865419 
L 133.992202 -56.984321 
L 114.481713 -58.103223 
L 94.971223 -60.900479 
L 75.460734 -60.900479 
L 55.950244 -71.53005 
z
" id="m0584cf5788" style="stroke:#9467bd;stroke-opacity:0.3;"/>
    </defs>
    <g clip-path="url(#p7d34bba433)">
     <use style="fill:#9467bd;fill-opacity:0.3;stroke:#9467bd;stroke-opacity:0.3;" x="0" xlink:href="#m0584cf5788" y="193.231353"/>
    </g>
   </g>
   <g id="matplotlib.axis_1">
    <g id="xtick_1">
     <g id="line2d_1">
      <defs>
       <path d="M 0 0 
L 0 3.5 
" id="m242df9830e" style="stroke:#000000;stroke-width:0.8;"/>
      </defs>
      <g>
       <use style="stroke:#000000;stroke-width:0.8;" x="55.950244" xlink:href="#m242df9830e" y="163.8"/>
      </g>
     </g>
     <g id="text_1">
      <!-- $\mathdefault{1.0}$ -->
      <g transform="translate(49.585205 177.718498)scale(0.1 -0.1)">
       <defs>
        <path d="M 1702 4058 
C 1702 4192 1696 4192 1606 4192 
C 1357 3916 979 3827 621 3827 
C 602 3827 570 3827 563 3808 
C 557 3795 557 3782 557 3648 
C 755 3648 1088 3686 1344 3839 
L 1344 461 
C 1344 236 1331 160 781 160 
L 589 160 
L 589 0 
C 896 0 1216 0 1523 0 
C 1830 0 2150 0 2458 0 
L 2458 160 
L 2266 160 
C 1715 160 1702 230 1702 458 
L 1702 4058 
z
" id="CMR17-31" transform="scale(0.015625)"/>
        <path d="M 1178 307 
C 1178 492 1024 619 870 619 
C 685 619 557 466 557 313 
C 557 128 710 0 864 0 
C 1050 0 1178 153 1178 307 
z
" id="CMMI12-3a" transform="scale(0.015625)"/>
        <path d="M 2688 2025 
C 2688 2416 2682 3080 2413 3591 
C 2176 4039 1798 4198 1466 4198 
C 1158 4198 768 4058 525 3597 
C 269 3118 243 2524 243 2025 
C 243 1661 250 1106 448 619 
C 723 -39 1216 -128 1466 -128 
C 1760 -128 2208 -7 2470 600 
C 2662 1042 2688 1559 2688 2025 
z
M 1466 -26 
C 1056 -26 813 325 723 812 
C 653 1188 653 1738 653 2096 
C 653 2588 653 2997 736 3387 
C 858 3929 1216 4096 1466 4096 
C 1728 4096 2067 3923 2189 3400 
C 2272 3036 2278 2607 2278 2096 
C 2278 1680 2278 1169 2202 792 
C 2067 95 1690 -26 1466 -26 
z
" id="CMR17-30" transform="scale(0.015625)"/>
       </defs>
       <use transform="scale(0.996264)" xlink:href="#CMR17-31"/>
       <use transform="translate(45.690477 0)scale(0.996264)" xlink:href="#CMMI12-3a"/>
       <use transform="translate(72.787654 0)scale(0.996264)" xlink:href="#CMR17-30"/>
      </g>
     </g>
    </g>
    <g id="xtick_2">
     <g id="line2d_2">
      <g>
       <use style="stroke:#000000;stroke-width:0.8;" x="104.726468" xlink:href="#m242df9830e" y="163.8"/>
      </g>
     </g>
     <g id="text_2">
      <!-- $\mathdefault{1.5}$ -->
      <g transform="translate(98.361429 177.718498)scale(0.1 -0.1)">
       <defs>
        <path d="M 730 3692 
C 794 3666 1056 3584 1325 3584 
C 1920 3584 2246 3911 2432 4100 
C 2432 4157 2432 4192 2394 4192 
C 2387 4192 2374 4192 2323 4163 
C 2099 4058 1837 3973 1517 3973 
C 1325 3973 1037 3999 723 4139 
C 653 4171 640 4171 634 4171 
C 602 4171 595 4164 595 4037 
L 595 2203 
C 595 2089 595 2057 659 2057 
C 691 2057 704 2070 736 2114 
C 941 2401 1222 2522 1542 2522 
C 1766 2522 2246 2382 2246 1289 
C 2246 1085 2246 715 2054 421 
C 1894 159 1645 25 1370 25 
C 947 25 518 320 403 814 
C 429 807 480 795 506 795 
C 589 795 749 840 749 1038 
C 749 1210 627 1280 506 1280 
C 358 1280 262 1190 262 1011 
C 262 454 704 -128 1382 -128 
C 2042 -128 2669 440 2669 1264 
C 2669 2030 2170 2624 1549 2624 
C 1222 2624 947 2503 730 2274 
L 730 3692 
z
" id="CMR17-35" transform="scale(0.015625)"/>
       </defs>
       <use transform="scale(0.996264)" xlink:href="#CMR17-31"/>
       <use transform="translate(45.690477 0)scale(0.996264)" xlink:href="#CMMI12-3a"/>
       <use transform="translate(72.787654 0)scale(0.996264)" xlink:href="#CMR17-35"/>
      </g>
     </g>
    </g>
    <g id="xtick_3">
     <g id="line2d_3">
      <g>
       <use style="stroke:#000000;stroke-width:0.8;" x="153.502692" xlink:href="#m242df9830e" y="163.8"/>
      </g>
     </g>
     <g id="text_3">
      <!-- $\mathdefault{2.0}$ -->
      <g transform="translate(147.137652 177.718498)scale(0.1 -0.1)">
       <defs>
        <path d="M 2669 989 
L 2554 989 
C 2490 536 2438 459 2413 420 
C 2381 369 1920 369 1830 369 
L 602 369 
C 832 619 1280 1072 1824 1597 
C 2214 1967 2669 2402 2669 3035 
C 2669 3790 2067 4224 1395 4224 
C 691 4224 262 3604 262 3030 
C 262 2780 448 2748 525 2748 
C 589 2748 781 2787 781 3010 
C 781 3207 614 3264 525 3264 
C 486 3264 448 3258 422 3245 
C 544 3790 915 4058 1306 4058 
C 1862 4058 2227 3617 2227 3035 
C 2227 2479 1901 2000 1536 1584 
L 262 146 
L 262 0 
L 2515 0 
L 2669 989 
z
" id="CMR17-32" transform="scale(0.015625)"/>
       </defs>
       <use transform="scale(0.996264)" xlink:href="#CMR17-32"/>
       <use transform="translate(45.690477 0)scale(0.996264)" xlink:href="#CMMI12-3a"/>
       <use transform="translate(72.787654 0)scale(0.996264)" xlink:href="#CMR17-30"/>
      </g>
     </g>
    </g>
    <g id="xtick_4">
     <g id="line2d_4">
      <g>
       <use style="stroke:#000000;stroke-width:0.8;" x="202.278916" xlink:href="#m242df9830e" y="163.8"/>
      </g>
     </g>
     <g id="text_4">
      <!-- $\mathdefault{2.5}$ -->
      <g transform="translate(195.913876 177.718498)scale(0.1 -0.1)">
       <use transform="scale(0.996264)" xlink:href="#CMR17-32"/>
       <use transform="translate(45.690477 0)scale(0.996264)" xlink:href="#CMMI12-3a"/>
       <use transform="translate(72.787654 0)scale(0.996264)" xlink:href="#CMR17-35"/>
      </g>
     </g>
    </g>
    <g id="xtick_5">
     <g id="line2d_5">
      <g>
       <use style="stroke:#000000;stroke-width:0.8;" x="251.055139" xlink:href="#m242df9830e" y="163.8"/>
      </g>
     </g>
     <g id="text_5">
      <!-- $\mathdefault{3.0}$ -->
      <g transform="translate(244.6901 177.718498)scale(0.1 -0.1)">
       <defs>
        <path d="M 1414 2157 
C 1984 2157 2234 1662 2234 1090 
C 2234 320 1824 25 1453 25 
C 1114 25 563 194 390 693 
C 422 680 454 680 486 680 
C 640 680 755 782 755 948 
C 755 1133 614 1216 486 1216 
C 378 1216 211 1165 211 926 
C 211 335 787 -128 1466 -128 
C 2176 -128 2720 430 2720 1085 
C 2720 1707 2208 2157 1600 2227 
C 2086 2328 2554 2756 2554 3329 
C 2554 3820 2048 4179 1472 4179 
C 890 4179 378 3829 378 3329 
C 378 3110 544 3072 627 3072 
C 762 3072 877 3155 877 3321 
C 877 3486 762 3569 627 3569 
C 602 3569 570 3569 544 3557 
C 730 3959 1235 4032 1459 4032 
C 1683 4032 2106 3925 2106 3320 
C 2106 3143 2080 2828 1862 2550 
C 1670 2304 1453 2304 1242 2284 
C 1210 2284 1062 2269 1037 2269 
C 992 2263 966 2257 966 2208 
C 966 2163 973 2157 1101 2157 
L 1414 2157 
z
" id="CMR17-33" transform="scale(0.015625)"/>
       </defs>
       <use transform="scale(0.996264)" xlink:href="#CMR17-33"/>
       <use transform="translate(45.690477 0)scale(0.996264)" xlink:href="#CMMI12-3a"/>
       <use transform="translate(72.787654 0)scale(0.996264)" xlink:href="#CMR17-30"/>
      </g>
     </g>
    </g>
    <g id="xtick_6">
     <g id="line2d_6">
      <g>
       <use style="stroke:#000000;stroke-width:0.8;" x="299.831363" xlink:href="#m242df9830e" y="163.8"/>
      </g>
     </g>
     <g id="text_6">
      <!-- $\mathdefault{3.5}$ -->
      <g transform="translate(293.466324 177.718498)scale(0.1 -0.1)">
       <use transform="scale(0.996264)" xlink:href="#CMR17-33"/>
       <use transform="translate(45.690477 0)scale(0.996264)" xlink:href="#CMMI12-3a"/>
       <use transform="translate(72.787654 0)scale(0.996264)" xlink:href="#CMR17-35"/>
      </g>
     </g>
    </g>
    <g id="text_7">
     <!-- H-H seperation in $a_0$ -->
     <g transform="translate(137.565751 190.574175)scale(0.1 -0.1)">
      <defs>
       <path d="M 3590 3905 
C 3590 4192 3661 4192 4102 4192 
L 4102 4352 
C 3917 4352 3578 4352 3379 4352 
C 3181 4352 2842 4352 2656 4352 
L 2656 4192 
C 3098 4192 3168 4192 3168 3904 
L 3168 2341 
L 1261 2341 
L 1261 3904 
C 1261 4192 1331 4192 1773 4192 
L 1773 4352 
C 1587 4352 1248 4352 1050 4352 
C 851 4352 512 4352 326 4352 
L 326 4192 
C 768 4192 838 4192 838 3905 
L 838 447 
C 838 160 768 160 326 160 
L 326 0 
C 512 0 851 0 1050 0 
C 1248 0 1587 0 1773 0 
L 1773 160 
C 1331 160 1261 160 1261 446 
L 1261 2176 
L 3168 2176 
L 3168 446 
C 3168 160 3098 160 2656 160 
L 2656 0 
C 2842 0 3181 0 3379 0 
C 3578 0 3917 0 4102 0 
L 4102 160 
C 3661 160 3590 160 3590 447 
L 3590 3905 
z
" id="CMR17-48" transform="scale(0.015625)"/>
       <path d="M 1632 1216 
L 1632 1496 
L 26 1496 
L 26 1216 
L 1632 1216 
z
" id="CMR17-2d" transform="scale(0.015625)"/>
       <path d="M 1978 2697 
C 1978 2813 1971 2819 1933 2819 
C 1907 2819 1901 2813 1824 2717 
C 1805 2691 1747 2626 1728 2601 
C 1523 2819 1235 2819 1126 2819 
C 416 2819 160 2447 160 2076 
C 160 1498 813 1365 998 1325 
C 1402 1243 1542 1217 1677 1101 
C 1760 1025 1901 884 1901 654 
C 1901 384 1747 38 1158 38 
C 602 38 403 460 288 1021 
C 269 1110 269 1117 218 1117 
C 166 1117 160 1110 160 983 
L 160 63 
C 160 -51 166 -58 205 -58 
C 237 -58 243 -51 275 0 
C 314 57 410 211 448 276 
C 576 103 800 -64 1158 -64 
C 1792 -64 2131 283 2131 784 
C 2131 1112 1958 1285 1875 1362 
C 1683 1561 1459 1606 1190 1657 
C 838 1735 390 1825 390 2217 
C 390 2383 480 2737 1126 2737 
C 1811 2737 1850 2094 1862 1888 
C 1869 1856 1901 1849 1920 1849 
C 1978 1849 1978 1869 1978 1978 
L 1978 2697 
z
" id="CMR17-73" transform="scale(0.015625)"/>
       <path d="M 2438 1472 
C 2464 1498 2464 1511 2464 1576 
C 2464 2238 2118 2816 1389 2816 
C 710 2816 173 2169 173 1383 
C 173 551 781 -64 1459 -64 
C 2176 -64 2458 607 2458 740 
C 2458 784 2419 784 2406 784 
C 2362 784 2355 771 2330 696 
C 2189 265 1837 51 1504 51 
C 1229 51 954 203 781 480 
C 582 803 582 1176 582 1472 
L 2438 1472 
z
M 589 1568 
C 634 2505 1126 2714 1382 2714 
C 1818 2714 2112 2297 2118 1568 
L 589 1568 
z
" id="CMR17-65" transform="scale(0.015625)"/>
       <path d="M 1408 -1063 
C 998 -1063 973 -1037 973 -789 
L 973 402 
C 1158 134 1427 -38 1766 -38 
C 2406 -38 3053 523 3053 1388 
C 3053 2191 2496 2802 1837 2802 
C 1453 2802 1139 2592 960 2338 
L 960 2802 
L 198 2732 
L 198 2567 
C 576 2567 634 2528 634 2223 
L 634 -789 
C 634 -1031 608 -1063 198 -1063 
L 198 -1228 
C 352 -1216 634 -1216 800 -1216 
C 966 -1216 1254 -1216 1408 -1228 
L 1408 -1063 
z
M 973 2012 
C 973 2102 973 2235 1222 2471 
C 1254 2497 1472 2688 1792 2688 
C 2259 2688 2643 2108 2643 1382 
C 2643 656 2234 64 1728 64 
C 1498 64 1248 172 1056 472 
C 973 612 973 650 973 752 
L 973 2012 
z
" id="CMR17-70" transform="scale(0.015625)"/>
       <path d="M 960 1497 
C 960 2112 1222 2688 1702 2688 
C 1747 2688 1792 2682 1837 2662 
C 1837 2662 1696 2617 1696 2452 
C 1696 2298 1818 2234 1914 2234 
C 1990 2234 2131 2279 2131 2458 
C 2131 2663 1926 2790 1709 2790 
C 1222 2790 1011 2317 947 2093 
L 941 2093 
L 941 2790 
L 198 2720 
L 198 2554 
C 576 2554 634 2515 634 2208 
L 634 428 
C 634 184 608 153 198 153 
L 198 -13 
C 352 0 646 0 813 0 
C 998 0 1325 0 1498 -13 
L 1498 153 
C 1037 153 960 153 960 440 
L 960 1497 
z
" id="CMR17-72" transform="scale(0.015625)"/>
       <path d="M 2304 1653 
C 2304 2072 2304 2294 2035 2543 
C 1798 2752 1523 2816 1306 2816 
C 800 2816 435 2407 435 1971 
C 435 1728 627 1728 666 1728 
C 749 1728 896 1778 896 1954 
C 896 2112 774 2181 666 2181 
C 640 2181 608 2174 589 2168 
C 723 2592 1069 2714 1293 2714 
C 1613 2714 1965 2429 1965 1885 
L 1965 1600 
C 1587 1600 1133 1549 774 1357 
C 371 1133 256 813 256 570 
C 256 77 832 -64 1171 -64 
C 1523 -64 1850 139 1990 511 
C 2003 233 2182 -18 2464 -18 
C 2598 -18 2938 70 2938 567 
L 2938 920 
L 2822 920 
L 2822 562 
C 2822 178 2650 128 2566 128 
C 2304 128 2304 458 2304 738 
L 2304 1653 
z
M 1965 870 
C 1965 317 1568 38 1216 38 
C 896 38 646 275 646 570 
C 646 761 730 1100 1101 1305 
C 1408 1478 1760 1504 1965 1504 
L 1965 870 
z
" id="CMR17-61" transform="scale(0.015625)"/>
       <path d="M 966 2560 
L 1862 2560 
L 1862 2725 
L 966 2725 
L 966 3904 
L 851 3904 
C 838 3245 614 2668 70 2668 
L 70 2560 
L 627 2560 
L 627 771 
C 627 650 627 -64 1370 -64 
C 1747 -64 1965 306 1965 777 
L 1965 1140 
L 1850 1140 
L 1850 783 
C 1850 344 1677 51 1408 51 
C 1222 51 966 178 966 758 
L 966 2560 
z
" id="CMR17-74" transform="scale(0.015625)"/>
       <path d="M 992 3909 
C 992 4049 877 4170 730 4170 
C 589 4170 467 4056 467 3909 
C 467 3769 582 3648 730 3648 
C 870 3648 992 3763 992 3909 
z
M 243 2706 
L 243 2541 
C 602 2541 653 2502 653 2197 
L 653 427 
C 653 184 627 153 218 153 
L 218 -13 
C 371 0 646 0 806 0 
C 960 0 1222 0 1370 -13 
L 1370 153 
C 992 153 979 191 979 420 
L 979 2776 
L 243 2706 
z
" id="CMR17-69" transform="scale(0.015625)"/>
       <path d="M 2758 1356 
C 2758 2176 2163 2816 1466 2816 
C 768 2816 173 2176 173 1356 
C 173 551 768 -64 1466 -64 
C 2163 -64 2758 551 2758 1356 
z
M 1466 51 
C 1165 51 909 230 762 480 
C 602 767 582 1126 582 1408 
C 582 1677 595 2010 762 2298 
C 890 2509 1139 2714 1466 2714 
C 1754 2714 1997 2554 2150 2330 
C 2349 2029 2349 1607 2349 1408 
C 2349 1158 2336 775 2163 467 
C 1984 173 1709 51 1466 51 
z
" id="CMR17-6f" transform="scale(0.015625)"/>
       <path d="M 2656 1933 
C 2656 2259 2592 2790 1837 2790 
C 1331 2790 1069 2400 973 2144 
L 966 2144 
L 966 2790 
L 211 2720 
L 211 2554 
C 589 2554 646 2515 646 2208 
L 646 428 
C 646 184 621 153 211 153 
L 211 -13 
C 365 0 646 0 813 0 
C 979 0 1267 0 1421 -13 
L 1421 153 
C 1011 153 986 178 986 428 
L 986 1658 
C 986 2247 1344 2688 1792 2688 
C 2266 2688 2317 2266 2317 1958 
L 2317 428 
C 2317 184 2291 153 1882 153 
L 1882 -13 
C 2035 0 2317 0 2483 0 
C 2650 0 2938 0 3091 -13 
L 3091 153 
C 2682 153 2656 178 2656 428 
L 2656 1933 
z
" id="CMR17-6e" transform="scale(0.015625)"/>
       <path d="M 1926 760 
C 1894 651 1894 639 1805 517 
C 1664 338 1382 64 1082 64 
C 819 64 672 300 672 677 
C 672 1028 870 1743 992 2012 
C 1210 2459 1510 2689 1760 2689 
C 2182 2689 2266 2165 2266 2114 
C 2266 2108 2246 2024 2240 2012 
L 1926 760 
z
M 2336 2395 
C 2266 2561 2093 2816 1760 2816 
C 1037 2816 256 1884 256 939 
C 256 307 627 -64 1062 -64 
C 1414 -64 1715 211 1894 422 
C 1958 45 2259 -64 2451 -64 
C 2643 -64 2797 51 2912 281 
C 3014 498 3104 888 3104 913 
C 3104 945 3078 971 3040 971 
C 2982 971 2976 939 2950 843 
C 2854 466 2733 64 2470 64 
C 2285 64 2272 230 2272 358 
C 2272 505 2291 575 2349 824 
C 2394 984 2426 1124 2477 1309 
C 2714 2267 2771 2497 2771 2535 
C 2771 2625 2701 2695 2605 2695 
C 2400 2695 2349 2472 2336 2395 
z
" id="CMMI12-61" transform="scale(0.015625)"/>
      </defs>
      <use transform="scale(0.996264)" xlink:href="#CMR17-48"/>
      <use transform="translate(69.07243 0)scale(0.996264)" xlink:href="#CMR17-2d"/>
      <use transform="translate(99.148396 0)scale(0.996264)" xlink:href="#CMR17-48"/>
      <use transform="translate(198.296792 0)scale(0.996264)" xlink:href="#CMR17-73"/>
      <use transform="translate(234.09813 0)scale(0.996264)" xlink:href="#CMR17-65"/>
      <use transform="translate(274.58379 0)scale(0.996264)" xlink:href="#CMR17-70"/>
      <use transform="translate(328.081599 0)scale(0.996264)" xlink:href="#CMR17-65"/>
      <use transform="translate(368.567259 0)scale(0.996264)" xlink:href="#CMR17-72"/>
      <use transform="translate(403.848027 0)scale(0.996264)" xlink:href="#CMR17-61"/>
      <use transform="translate(449.538504 0)scale(0.996264)" xlink:href="#CMR17-74"/>
      <use transform="translate(484.819272 0)scale(0.996264)" xlink:href="#CMR17-69"/>
      <use transform="translate(509.690331 0)scale(0.996264)" xlink:href="#CMR17-6f"/>
      <use transform="translate(555.380808 0)scale(0.996264)" xlink:href="#CMR17-6e"/>
      <use transform="translate(636.352144 0)scale(0.996264)" xlink:href="#CMR17-69"/>
      <use transform="translate(661.223202 0)scale(0.996264)" xlink:href="#CMR17-6e"/>
      <use transform="translate(742.194538 0)scale(0.996264)" xlink:href="#CMMI12-61"/>
      <use transform="translate(793.402396 -14.943915)scale(0.697382)" xlink:href="#CMR17-30"/>
     </g>
    </g>
   </g>
   <g id="matplotlib.axis_2">
    <g id="ytick_1">
     <g id="line2d_7">
      <defs>
       <path d="M 0 0 
L -3.5 0 
" id="m3efd0527b0" style="stroke:#000000;stroke-width:0.8;"/>
      </defs>
      <g>
       <use style="stroke:#000000;stroke-width:0.8;" x="43.268426" xlink:href="#m3efd0527b0" y="139.044288"/>
      </g>
     </g>
     <g id="text_8">
      <!-- $\mathdefault{0.000}$ -->
      <g transform="translate(13.575677 142.503537)scale(0.1 -0.1)">
       <use transform="scale(0.996264)" xlink:href="#CMR17-30"/>
       <use transform="translate(45.690477 0)scale(0.996264)" xlink:href="#CMMI12-3a"/>
       <use transform="translate(72.787654 0)scale(0.996264)" xlink:href="#CMR17-30"/>
       <use transform="translate(118.478131 0)scale(0.996264)" xlink:href="#CMR17-30"/>
       <use transform="translate(164.168608 0)scale(0.996264)" xlink:href="#CMR17-30"/>
      </g>
     </g>
    </g>
    <g id="ytick_2">
     <g id="line2d_8">
      <g>
       <use style="stroke:#000000;stroke-width:0.8;" x="43.268426" xlink:href="#m3efd0527b0" y="111.071732"/>
      </g>
     </g>
     <g id="text_9">
      <!-- $\mathdefault{0.005}$ -->
      <g transform="translate(13.575677 114.530982)scale(0.1 -0.1)">
       <use transform="scale(0.996264)" xlink:href="#CMR17-30"/>
       <use transform="translate(45.690477 0)scale(0.996264)" xlink:href="#CMMI12-3a"/>
       <use transform="translate(72.787654 0)scale(0.996264)" xlink:href="#CMR17-30"/>
       <use transform="translate(118.478131 0)scale(0.996264)" xlink:href="#CMR17-30"/>
       <use transform="translate(164.168608 0)scale(0.996264)" xlink:href="#CMR17-35"/>
      </g>
     </g>
    </g>
    <g id="ytick_3">
     <g id="line2d_9">
      <g>
       <use style="stroke:#000000;stroke-width:0.8;" x="43.268426" xlink:href="#m3efd0527b0" y="83.099177"/>
      </g>
     </g>
     <g id="text_10">
      <!-- $\mathdefault{0.010}$ -->
      <g transform="translate(13.575677 86.558426)scale(0.1 -0.1)">
       <use transform="scale(0.996264)" xlink:href="#CMR17-30"/>
       <use transform="translate(45.690477 0)scale(0.996264)" xlink:href="#CMMI12-3a"/>
       <use transform="translate(72.787654 0)scale(0.996264)" xlink:href="#CMR17-30"/>
       <use transform="translate(118.478131 0)scale(0.996264)" xlink:href="#CMR17-31"/>
       <use transform="translate(164.168608 0)scale(0.996264)" xlink:href="#CMR17-30"/>
      </g>
     </g>
    </g>
    <g id="ytick_4">
     <g id="line2d_10">
      <g>
       <use style="stroke:#000000;stroke-width:0.8;" x="43.268426" xlink:href="#m3efd0527b0" y="55.126621"/>
      </g>
     </g>
     <g id="text_11">
      <!-- $\mathdefault{0.015}$ -->
      <g transform="translate(13.575677 58.58587)scale(0.1 -0.1)">
       <use transform="scale(0.996264)" xlink:href="#CMR17-30"/>
       <use transform="translate(45.690477 0)scale(0.996264)" xlink:href="#CMMI12-3a"/>
       <use transform="translate(72.787654 0)scale(0.996264)" xlink:href="#CMR17-30"/>
       <use transform="translate(118.478131 0)scale(0.996264)" xlink:href="#CMR17-31"/>
       <use transform="translate(164.168608 0)scale(0.996264)" xlink:href="#CMR17-35"/>
      </g>
     </g>
    </g>
    <g id="ytick_5">
     <g id="line2d_11">
      <g>
       <use style="stroke:#000000;stroke-width:0.8;" x="43.268426" xlink:href="#m3efd0527b0" y="27.154065"/>
      </g>
     </g>
     <g id="text_12">
      <!-- $\mathdefault{0.020}$ -->
      <g transform="translate(13.575677 30.613314)scale(0.1 -0.1)">
       <use transform="scale(0.996264)" xlink:href="#CMR17-30"/>
       <use transform="translate(45.690477 0)scale(0.996264)" xlink:href="#CMMI12-3a"/>
       <use transform="translate(72.787654 0)scale(0.996264)" xlink:href="#CMR17-30"/>
       <use transform="translate(118.478131 0)scale(0.996264)" xlink:href="#CMR17-32"/>
       <use transform="translate(164.168608 0)scale(0.996264)" xlink:href="#CMR17-30"/>
      </g>
     </g>
    </g>
    <g id="text_13">
     <!-- $E-E_\mathrm{ref}$ in $E_\mathrm{h}$ -->
     <g transform="translate(7.638498 114.42929)rotate(-90)scale(0.1 -0.1)">
      <defs>
       <path d="M 4448 1489 
C 4454 1508 4474 1554 4474 1579 
C 4474 1611 4448 1643 4410 1643 
C 4384 1643 4371 1637 4352 1617 
C 4339 1611 4339 1598 4282 1469 
C 3904 570 3629 185 2605 185 
L 1670 185 
C 1581 185 1568 185 1530 192 
C 1459 198 1453 211 1453 262 
C 1453 307 1466 345 1478 403 
L 1920 2176 
L 2554 2176 
C 3053 2176 3091 2066 3091 1874 
C 3091 1810 3091 1752 3046 1560 
C 3034 1534 3027 1508 3027 1489 
C 3027 1444 3059 1425 3098 1425 
C 3155 1425 3162 1469 3187 1559 
L 3552 3042 
C 3552 3073 3526 3105 3488 3105 
C 3430 3105 3424 3080 3398 2990 
C 3270 2501 3142 2361 2573 2361 
L 1965 2361 
L 2362 3930 
C 2419 4154 2432 4154 2694 4154 
L 3610 4154 
C 4397 4154 4557 3943 4557 3458 
C 4557 3451 4557 3273 4531 3062 
C 4525 3036 4518 2998 4518 2985 
C 4518 2934 4550 2915 4589 2915 
C 4634 2915 4659 2941 4672 3055 
L 4806 4174 
C 4806 4195 4819 4263 4819 4277 
C 4819 4352 4762 4352 4646 4352 
L 1523 4352 
C 1402 4352 1338 4352 1338 4229 
C 1338 4154 1382 4154 1491 4154 
C 1888 4154 1888 4114 1888 4052 
C 1888 4020 1882 3994 1862 3924 
L 998 473 
C 941 249 928 185 480 185 
C 358 185 294 185 294 70 
C 294 0 333 0 461 0 
L 3674 0 
C 3814 0 3821 6 3866 110 
L 4448 1489 
z
" id="CMMI12-45" transform="scale(0.015625)"/>
       <path d="M 4218 1472 
C 4326 1472 4442 1472 4442 1600 
C 4442 1728 4326 1728 4218 1728 
L 755 1728 
C 646 1728 531 1728 531 1600 
C 531 1472 646 1472 755 1472 
L 4218 1472 
z
" id="CMSY10-0" transform="scale(0.015625)"/>
       <path d="M 979 2560 
L 1709 2560 
L 1709 2725 
L 966 2725 
L 966 3494 
C 966 4022 1235 4352 1510 4352 
C 1594 4352 1690 4327 1754 4282 
C 1702 4269 1568 4225 1568 4067 
C 1568 3901 1696 3850 1786 3850 
C 1875 3850 2003 3901 2003 4067 
C 2003 4308 1773 4454 1517 4454 
C 1152 4454 653 4156 653 3481 
L 653 2725 
L 141 2725 
L 141 2560 
L 653 2560 
L 653 427 
C 653 184 627 153 218 153 
L 218 -13 
C 371 0 666 0 832 0 
C 1018 0 1344 0 1517 -13 
L 1517 153 
C 1056 153 979 153 979 439 
L 979 2560 
z
" id="CMR17-66" transform="scale(0.015625)"/>
       <path d="M 2656 1933 
C 2656 2259 2592 2790 1837 2790 
C 1312 2790 1056 2368 979 2157 
L 973 2157 
L 973 4396 
L 211 4326 
L 211 4160 
C 589 4160 646 4122 646 3817 
L 646 426 
C 646 184 621 153 211 153 
L 211 -13 
C 365 0 646 0 813 0 
C 979 0 1267 0 1421 -13 
L 1421 153 
C 1011 153 986 178 986 428 
L 986 1658 
C 986 2247 1344 2688 1792 2688 
C 2266 2688 2317 2266 2317 1958 
L 2317 428 
C 2317 184 2291 153 1882 153 
L 1882 -13 
C 2035 0 2317 0 2483 0 
C 2650 0 2938 0 3091 -13 
L 3091 153 
C 2682 153 2656 178 2656 428 
L 2656 1933 
z
" id="CMR17-68" transform="scale(0.015625)"/>
      </defs>
      <use transform="scale(0.996264)" xlink:href="#CMMI12-45"/>
      <use transform="translate(100.190843 0)scale(0.996264)" xlink:href="#CMSY10-0"/>
      <use transform="translate(199.817518 0)scale(0.996264)" xlink:href="#CMMI12-45"/>
      <use transform="translate(272.028736 -14.943915)scale(0.697382)" xlink:href="#CMR17-72"/>
      <use transform="translate(296.725156 -14.943915)scale(0.697382)" xlink:href="#CMR17-65"/>
      <use transform="translate(325.064988 -14.943915)scale(0.697382)" xlink:href="#CMR17-66"/>
      <use transform="translate(379.004286 0)scale(0.996264)" xlink:href="#CMR17-69"/>
      <use transform="translate(403.875345 0)scale(0.996264)" xlink:href="#CMR17-6e"/>
      <use transform="translate(484.846681 0)scale(0.996264)" xlink:href="#CMMI12-45"/>
      <use transform="translate(557.057899 -14.943915)scale(0.697382)" xlink:href="#CMR17-68"/>
     </g>
    </g>
   </g>
   <g id="line2d_12">
    <path clip-path="url(#p7d34bba433)" d="M 55.950244 114.738939 
L 75.460734 112.527397 
L 94.971223 121.598686 
L 114.481713 125.658505 
L 133.992202 126.663786 
L 153.502692 127.820245 
L 192.523671 129.881526 
L 231.54465 134.111376 
L 270.565629 138.625464 
L 309.586608 141.096512 
" style="fill:none;stroke:#1f77b4;stroke-dasharray:5.55,2.4;stroke-dashoffset:0;stroke-width:1.5;"/>
    <defs>
     <path d="M -0 2 
L 2 -2 
L -2 -2 
z
" id="m592d7260d9" style="stroke:#1f77b4;stroke-linejoin:miter;"/>
    </defs>
    <g clip-path="url(#p7d34bba433)">
     <use style="fill:#1f77b4;stroke:#1f77b4;stroke-linejoin:miter;" x="55.950244" xlink:href="#m592d7260d9" y="114.738939"/>
     <use style="fill:#1f77b4;stroke:#1f77b4;stroke-linejoin:miter;" x="75.460734" xlink:href="#m592d7260d9" y="112.527397"/>
     <use style="fill:#1f77b4;stroke:#1f77b4;stroke-linejoin:miter;" x="94.971223" xlink:href="#m592d7260d9" y="121.598686"/>
     <use style="fill:#1f77b4;stroke:#1f77b4;stroke-linejoin:miter;" x="114.481713" xlink:href="#m592d7260d9" y="125.658505"/>
     <use style="fill:#1f77b4;stroke:#1f77b4;stroke-linejoin:miter;" x="133.992202" xlink:href="#m592d7260d9" y="126.663786"/>
     <use style="fill:#1f77b4;stroke:#1f77b4;stroke-linejoin:miter;" x="153.502692" xlink:href="#m592d7260d9" y="127.820245"/>
     <use style="fill:#1f77b4;stroke:#1f77b4;stroke-linejoin:miter;" x="192.523671" xlink:href="#m592d7260d9" y="129.881526"/>
     <use style="fill:#1f77b4;stroke:#1f77b4;stroke-linejoin:miter;" x="231.54465" xlink:href="#m592d7260d9" y="134.111376"/>
     <use style="fill:#1f77b4;stroke:#1f77b4;stroke-linejoin:miter;" x="270.565629" xlink:href="#m592d7260d9" y="138.625464"/>
     <use style="fill:#1f77b4;stroke:#1f77b4;stroke-linejoin:miter;" x="309.586608" xlink:href="#m592d7260d9" y="141.096512"/>
    </g>
   </g>
   <g id="line2d_13">
    <path clip-path="url(#p7d34bba433)" d="M 55.950244 117.094423 
L 75.460734 112.207541 
L 94.971223 120.602933 
L 114.481713 124.450745 
L 133.992202 125.290945 
L 153.502692 125.597875 
L 192.523671 128.106814 
L 231.54465 131.57117 
L 270.565629 135.25954 
L 309.586608 135.403354 
" style="fill:none;stroke:#ff7f0e;stroke-dasharray:5.55,2.4;stroke-dashoffset:0;stroke-width:1.5;"/>
    <defs>
     <path d="M 0 -1.5 
L -1.5 1.5 
L 1.5 1.5 
z
" id="m7cc2f9a857" style="stroke:#ff7f0e;stroke-linejoin:miter;"/>
    </defs>
    <g clip-path="url(#p7d34bba433)">
     <use style="fill:#ff7f0e;stroke:#ff7f0e;stroke-linejoin:miter;" x="55.950244" xlink:href="#m7cc2f9a857" y="117.094423"/>
     <use style="fill:#ff7f0e;stroke:#ff7f0e;stroke-linejoin:miter;" x="75.460734" xlink:href="#m7cc2f9a857" y="112.207541"/>
     <use style="fill:#ff7f0e;stroke:#ff7f0e;stroke-linejoin:miter;" x="94.971223" xlink:href="#m7cc2f9a857" y="120.602933"/>
     <use style="fill:#ff7f0e;stroke:#ff7f0e;stroke-linejoin:miter;" x="114.481713" xlink:href="#m7cc2f9a857" y="124.450745"/>
     <use style="fill:#ff7f0e;stroke:#ff7f0e;stroke-linejoin:miter;" x="133.992202" xlink:href="#m7cc2f9a857" y="125.290945"/>
     <use style="fill:#ff7f0e;stroke:#ff7f0e;stroke-linejoin:miter;" x="153.502692" xlink:href="#m7cc2f9a857" y="125.597875"/>
     <use style="fill:#ff7f0e;stroke:#ff7f0e;stroke-linejoin:miter;" x="192.523671" xlink:href="#m7cc2f9a857" y="128.106814"/>
     <use style="fill:#ff7f0e;stroke:#ff7f0e;stroke-linejoin:miter;" x="231.54465" xlink:href="#m7cc2f9a857" y="131.57117"/>
     <use style="fill:#ff7f0e;stroke:#ff7f0e;stroke-linejoin:miter;" x="270.565629" xlink:href="#m7cc2f9a857" y="135.25954"/>
     <use style="fill:#ff7f0e;stroke:#ff7f0e;stroke-linejoin:miter;" x="309.586608" xlink:href="#m7cc2f9a857" y="135.403354"/>
    </g>
   </g>
   <g id="line2d_14">
    <path clip-path="url(#p7d34bba433)" d="M 75.460734 99.871967 
L 94.971223 110.45049 
L 114.481713 116.692464 
L 133.992202 115.070089 
L 153.502692 113.932351 
L 192.523671 113.259269 
L 231.54465 112.52992 
L 270.565629 109.297091 
L 309.586608 99.139386 
" style="fill:none;stroke:#2ca02c;stroke-dasharray:5.55,2.4;stroke-dashoffset:0;stroke-width:1.5;"/>
    <defs>
     <path d="M -1.5 -0 
L 1.5 1.5 
L 1.5 -1.5 
z
" id="mbeae850084" style="stroke:#2ca02c;stroke-linejoin:miter;"/>
    </defs>
    <g clip-path="url(#p7d34bba433)">
     <use style="fill:#2ca02c;stroke:#2ca02c;stroke-linejoin:miter;" x="75.460734" xlink:href="#mbeae850084" y="99.871967"/>
     <use style="fill:#2ca02c;stroke:#2ca02c;stroke-linejoin:miter;" x="94.971223" xlink:href="#mbeae850084" y="110.45049"/>
     <use style="fill:#2ca02c;stroke:#2ca02c;stroke-linejoin:miter;" x="114.481713" xlink:href="#mbeae850084" y="116.692464"/>
     <use style="fill:#2ca02c;stroke:#2ca02c;stroke-linejoin:miter;" x="133.992202" xlink:href="#mbeae850084" y="115.070089"/>
     <use style="fill:#2ca02c;stroke:#2ca02c;stroke-linejoin:miter;" x="153.502692" xlink:href="#mbeae850084" y="113.932351"/>
     <use style="fill:#2ca02c;stroke:#2ca02c;stroke-linejoin:miter;" x="192.523671" xlink:href="#mbeae850084" y="113.259269"/>
     <use style="fill:#2ca02c;stroke:#2ca02c;stroke-linejoin:miter;" x="231.54465" xlink:href="#mbeae850084" y="112.52992"/>
     <use style="fill:#2ca02c;stroke:#2ca02c;stroke-linejoin:miter;" x="270.565629" xlink:href="#mbeae850084" y="109.297091"/>
     <use style="fill:#2ca02c;stroke:#2ca02c;stroke-linejoin:miter;" x="309.586608" xlink:href="#mbeae850084" y="99.139386"/>
    </g>
   </g>
   <g id="line2d_15">
    <path clip-path="url(#p7d34bba433)" d="M 75.460734 72.680398 
L 94.971223 102.60487 
L 114.481713 104.287794 
L 133.992202 118.999568 
L 153.502692 116.608024 
L 192.523671 118.029065 
L 231.54465 125.796247 
L 270.565629 120.021128 
L 309.586608 121.315733 
" style="fill:none;stroke:#d62728;stroke-dasharray:5.55,2.4;stroke-dashoffset:0;stroke-width:1.5;"/>
    <defs>
     <path d="M -0.5 1.5 
L 0.5 1.5 
L 0.5 0.5 
L 1.5 0.5 
L 1.5 -0.5 
L 0.5 -0.5 
L 0.5 -1.5 
L -0.5 -1.5 
L -0.5 -0.5 
L -1.5 -0.5 
L -1.5 0.5 
L -0.5 0.5 
z
" id="m07e777028a" style="stroke:#d62728;stroke-linejoin:miter;"/>
    </defs>
    <g clip-path="url(#p7d34bba433)">
     <use style="fill:#d62728;stroke:#d62728;stroke-linejoin:miter;" x="75.460734" xlink:href="#m07e777028a" y="72.680398"/>
     <use style="fill:#d62728;stroke:#d62728;stroke-linejoin:miter;" x="94.971223" xlink:href="#m07e777028a" y="102.60487"/>
     <use style="fill:#d62728;stroke:#d62728;stroke-linejoin:miter;" x="114.481713" xlink:href="#m07e777028a" y="104.287794"/>
     <use style="fill:#d62728;stroke:#d62728;stroke-linejoin:miter;" x="133.992202" xlink:href="#m07e777028a" y="118.999568"/>
     <use style="fill:#d62728;stroke:#d62728;stroke-linejoin:miter;" x="153.502692" xlink:href="#m07e777028a" y="116.608024"/>
     <use style="fill:#d62728;stroke:#d62728;stroke-linejoin:miter;" x="192.523671" xlink:href="#m07e777028a" y="118.029065"/>
     <use style="fill:#d62728;stroke:#d62728;stroke-linejoin:miter;" x="231.54465" xlink:href="#m07e777028a" y="125.796247"/>
     <use style="fill:#d62728;stroke:#d62728;stroke-linejoin:miter;" x="270.565629" xlink:href="#m07e777028a" y="120.021128"/>
     <use style="fill:#d62728;stroke:#d62728;stroke-linejoin:miter;" x="309.586608" xlink:href="#m07e777028a" y="121.315733"/>
    </g>
   </g>
   <g id="line2d_16">
    <path clip-path="url(#p7d34bba433)" d="M 55.950244 139.044288 
L 75.460734 139.044288 
L 94.971223 139.044288 
L 114.481713 139.044288 
L 133.992202 139.044288 
L 153.502692 139.044288 
L 192.523671 139.044288 
L 231.54465 139.044288 
L 270.565629 139.044288 
L 309.586608 139.044288 
" style="fill:none;stroke:#9467bd;stroke-dasharray:1.5,2.475;stroke-dashoffset:0;stroke-width:1.5;"/>
    <defs>
     <path d="M -0 2.12132 
L 1.272792 0 
L 0 -2.12132 
L -1.272792 -0 
z
" id="mefb60fd1bb" style="stroke:#9467bd;stroke-linejoin:miter;"/>
    </defs>
    <g clip-path="url(#p7d34bba433)">
     <use style="fill:#9467bd;stroke:#9467bd;stroke-linejoin:miter;" x="55.950244" xlink:href="#mefb60fd1bb" y="139.044288"/>
     <use style="fill:#9467bd;stroke:#9467bd;stroke-linejoin:miter;" x="75.460734" xlink:href="#mefb60fd1bb" y="139.044288"/>
     <use style="fill:#9467bd;stroke:#9467bd;stroke-linejoin:miter;" x="94.971223" xlink:href="#mefb60fd1bb" y="139.044288"/>
     <use style="fill:#9467bd;stroke:#9467bd;stroke-linejoin:miter;" x="114.481713" xlink:href="#mefb60fd1bb" y="139.044288"/>
     <use style="fill:#9467bd;stroke:#9467bd;stroke-linejoin:miter;" x="133.992202" xlink:href="#mefb60fd1bb" y="139.044288"/>
     <use style="fill:#9467bd;stroke:#9467bd;stroke-linejoin:miter;" x="153.502692" xlink:href="#mefb60fd1bb" y="139.044288"/>
     <use style="fill:#9467bd;stroke:#9467bd;stroke-linejoin:miter;" x="192.523671" xlink:href="#mefb60fd1bb" y="139.044288"/>
     <use style="fill:#9467bd;stroke:#9467bd;stroke-linejoin:miter;" x="231.54465" xlink:href="#mefb60fd1bb" y="139.044288"/>
     <use style="fill:#9467bd;stroke:#9467bd;stroke-linejoin:miter;" x="270.565629" xlink:href="#mefb60fd1bb" y="139.044288"/>
     <use style="fill:#9467bd;stroke:#9467bd;stroke-linejoin:miter;" x="309.586608" xlink:href="#mefb60fd1bb" y="139.044288"/>
    </g>
   </g>
   <g id="line2d_17">
    <path clip-path="url(#p7d34bba433)" d="M 55.950244 129.533619 
L 75.460734 129.533619 
L 94.971223 137.365935 
L 114.481713 135.687581 
L 133.992202 133.449777 
L 153.502692 131.211973 
L 192.523671 126.176913 
L 231.54465 140.16319 
L 270.565629 138.484837 
L 309.586608 147.436055 
" style="fill:none;stroke:#8c564b;stroke-dasharray:1.5,2.475;stroke-dashoffset:0;stroke-width:1.5;"/>
    <defs>
     <path d="M 0 0.75 
C 0.198902 0.75 0.389685 0.670975 0.53033 0.53033 
C 0.670975 0.389685 0.75 0.198902 0.75 0 
C 0.75 -0.198902 0.670975 -0.389685 0.53033 -0.53033 
C 0.389685 -0.670975 0.198902 -0.75 0 -0.75 
C -0.198902 -0.75 -0.389685 -0.670975 -0.53033 -0.53033 
C -0.670975 -0.389685 -0.75 -0.198902 -0.75 0 
C -0.75 0.198902 -0.670975 0.389685 -0.53033 0.53033 
C -0.389685 0.670975 -0.198902 0.75 0 0.75 
z
" id="m816471f7f0" style="stroke:#8c564b;"/>
    </defs>
    <g clip-path="url(#p7d34bba433)">
     <use style="fill:#8c564b;stroke:#8c564b;" x="55.950244" xlink:href="#m816471f7f0" y="129.533619"/>
     <use style="fill:#8c564b;stroke:#8c564b;" x="75.460734" xlink:href="#m816471f7f0" y="129.533619"/>
     <use style="fill:#8c564b;stroke:#8c564b;" x="94.971223" xlink:href="#m816471f7f0" y="137.365935"/>
     <use style="fill:#8c564b;stroke:#8c564b;" x="114.481713" xlink:href="#m816471f7f0" y="135.687581"/>
     <use style="fill:#8c564b;stroke:#8c564b;" x="133.992202" xlink:href="#m816471f7f0" y="133.449777"/>
     <use style="fill:#8c564b;stroke:#8c564b;" x="153.502692" xlink:href="#m816471f7f0" y="131.211973"/>
     <use style="fill:#8c564b;stroke:#8c564b;" x="192.523671" xlink:href="#m816471f7f0" y="126.176913"/>
     <use style="fill:#8c564b;stroke:#8c564b;" x="231.54465" xlink:href="#m816471f7f0" y="140.16319"/>
     <use style="fill:#8c564b;stroke:#8c564b;" x="270.565629" xlink:href="#m816471f7f0" y="138.484837"/>
     <use style="fill:#8c564b;stroke:#8c564b;" x="309.586608" xlink:href="#m816471f7f0" y="147.436055"/>
    </g>
   </g>
   <g id="line2d_18">
    <path clip-path="url(#p7d34bba433)" d="M 55.950244 86.455883 
L 75.460734 97.644906 
L 94.971223 99.323259 
L 114.481713 93.728748 
L 133.992202 71.350703 
L 153.502692 43.378148 
L 192.523671 8.132727 
L 231.54465 8.132727 
L 270.565629 28.832419 
L 309.586608 57.364425 
" style="fill:none;stroke:#e377c2;stroke-dasharray:1.5,2.475;stroke-dashoffset:0;stroke-width:1.5;"/>
    <defs>
     <path d="M 0 -1.5 
L -1.426585 -0.463525 
L -0.881678 1.213525 
L 0.881678 1.213525 
L 1.426585 -0.463525 
z
" id="mb2f1da5ef2" style="stroke:#e377c2;stroke-linejoin:miter;"/>
    </defs>
    <g clip-path="url(#p7d34bba433)">
     <use style="fill:#e377c2;stroke:#e377c2;stroke-linejoin:miter;" x="55.950244" xlink:href="#mb2f1da5ef2" y="86.455883"/>
     <use style="fill:#e377c2;stroke:#e377c2;stroke-linejoin:miter;" x="75.460734" xlink:href="#mb2f1da5ef2" y="97.644906"/>
     <use style="fill:#e377c2;stroke:#e377c2;stroke-linejoin:miter;" x="94.971223" xlink:href="#mb2f1da5ef2" y="99.323259"/>
     <use style="fill:#e377c2;stroke:#e377c2;stroke-linejoin:miter;" x="114.481713" xlink:href="#mb2f1da5ef2" y="93.728748"/>
     <use style="fill:#e377c2;stroke:#e377c2;stroke-linejoin:miter;" x="133.992202" xlink:href="#mb2f1da5ef2" y="71.350703"/>
     <use style="fill:#e377c2;stroke:#e377c2;stroke-linejoin:miter;" x="153.502692" xlink:href="#mb2f1da5ef2" y="43.378148"/>
     <use style="fill:#e377c2;stroke:#e377c2;stroke-linejoin:miter;" x="192.523671" xlink:href="#mb2f1da5ef2" y="8.132727"/>
     <use style="fill:#e377c2;stroke:#e377c2;stroke-linejoin:miter;" x="231.54465" xlink:href="#mb2f1da5ef2" y="8.132727"/>
     <use style="fill:#e377c2;stroke:#e377c2;stroke-linejoin:miter;" x="270.565629" xlink:href="#mb2f1da5ef2" y="28.832419"/>
     <use style="fill:#e377c2;stroke:#e377c2;stroke-linejoin:miter;" x="309.586608" xlink:href="#mb2f1da5ef2" y="57.364425"/>
    </g>
   </g>
   <g id="line2d_19">
    <path clip-path="url(#p7d34bba433)" d="M 55.950244 120.582401 
L 75.460734 130.09307 
L 94.971223 133.449777 
L 114.481713 133.449777 
L 133.992202 121.701304 
L 153.502692 100.442161 
L 192.523671 55.126621 
L 231.54465 40.580892 
L 270.565629 49.53211 
L 309.586608 69.112899 
" style="fill:none;stroke:#7f7f7f;stroke-dasharray:1.5,2.475;stroke-dashoffset:0;stroke-width:1.5;"/>
    <defs>
     <path d="M -1.5 1.5 
L 1.5 1.5 
L 1.5 -1.5 
L -1.5 -1.5 
z
" id="m3418fef75e" style="stroke:#7f7f7f;stroke-linejoin:miter;"/>
    </defs>
    <g clip-path="url(#p7d34bba433)">
     <use style="fill:#7f7f7f;stroke:#7f7f7f;stroke-linejoin:miter;" x="55.950244" xlink:href="#m3418fef75e" y="120.582401"/>
     <use style="fill:#7f7f7f;stroke:#7f7f7f;stroke-linejoin:miter;" x="75.460734" xlink:href="#m3418fef75e" y="130.09307"/>
     <use style="fill:#7f7f7f;stroke:#7f7f7f;stroke-linejoin:miter;" x="94.971223" xlink:href="#m3418fef75e" y="133.449777"/>
     <use style="fill:#7f7f7f;stroke:#7f7f7f;stroke-linejoin:miter;" x="114.481713" xlink:href="#m3418fef75e" y="133.449777"/>
     <use style="fill:#7f7f7f;stroke:#7f7f7f;stroke-linejoin:miter;" x="133.992202" xlink:href="#m3418fef75e" y="121.701304"/>
     <use style="fill:#7f7f7f;stroke:#7f7f7f;stroke-linejoin:miter;" x="153.502692" xlink:href="#m3418fef75e" y="100.442161"/>
     <use style="fill:#7f7f7f;stroke:#7f7f7f;stroke-linejoin:miter;" x="192.523671" xlink:href="#m3418fef75e" y="55.126621"/>
     <use style="fill:#7f7f7f;stroke:#7f7f7f;stroke-linejoin:miter;" x="231.54465" xlink:href="#m3418fef75e" y="40.580892"/>
     <use style="fill:#7f7f7f;stroke:#7f7f7f;stroke-linejoin:miter;" x="270.565629" xlink:href="#m3418fef75e" y="49.53211"/>
     <use style="fill:#7f7f7f;stroke:#7f7f7f;stroke-linejoin:miter;" x="309.586608" xlink:href="#m3418fef75e" y="69.112899"/>
    </g>
   </g>
   <g id="patch_3">
    <path d="M 43.268426 163.8 
L 43.268426 0.72 
" style="fill:none;stroke:#000000;stroke-linecap:square;stroke-linejoin:miter;stroke-width:0.8;"/>
   </g>
   <g id="patch_4">
    <path d="M 322.268426 163.8 
L 322.268426 0.72 
" style="fill:none;stroke:#000000;stroke-linecap:square;stroke-linejoin:miter;stroke-width:0.8;"/>
   </g>
   <g id="patch_5">
    <path d="M 43.268426 163.8 
L 322.268426 163.8 
" style="fill:none;stroke:#000000;stroke-linecap:square;stroke-linejoin:miter;stroke-width:0.8;"/>
   </g>
   <g id="patch_6">
    <path d="M 43.268426 0.72 
L 322.268426 0.72 
" style="fill:none;stroke:#000000;stroke-linecap:square;stroke-linejoin:miter;stroke-width:0.8;"/>
   </g>
   <g id="legend_1">
    <g id="patch_7">
     <path d="M 48.868426 52.539349 
L 150.772283 52.539349 
Q 152.372283 52.539349 152.372283 50.939349 
L 152.372283 6.32 
Q 152.372283 4.72 150.772283 4.72 
L 48.868426 4.72 
Q 47.268426 4.72 47.268426 6.32 
L 47.268426 50.939349 
Q 47.268426 52.539349 48.868426 52.539349 
z
" style="fill:#ffffff;opacity:0.8;stroke:#cccccc;stroke-linejoin:miter;"/>
    </g>
    <g id="line2d_20">
     <path d="M 50.468426 10.72 
L 66.468426 10.72 
" style="fill:none;stroke:#9467bd;stroke-dasharray:1.5,2.475;stroke-dashoffset:0;stroke-width:1.5;"/>
    </g>
    <g id="line2d_21">
     <g>
      <use style="fill:#9467bd;stroke:#9467bd;stroke-linejoin:miter;" x="58.468426" xlink:href="#mefb60fd1bb" y="10.72"/>
     </g>
    </g>
    <g id="text_14">
     <!-- MRCI+Q+F12 CBS -->
     <g transform="translate(72.868426 13.52)scale(0.08 -0.08)">
      <defs>
       <path d="M 1338 4224 
C 1299 4320 1293 4320 1158 4320 
L 339 4320 
L 339 4160 
C 781 4160 851 4160 851 3875 
L 851 610 
C 851 451 851 153 339 153 
L 339 -13 
C 486 0 755 0 915 0 
C 1075 0 1344 0 1491 -13 
L 1491 153 
C 979 153 979 451 979 610 
L 979 4135 
L 986 4135 
L 2490 89 
C 2515 25 2528 -13 2579 -13 
C 2630 -13 2643 25 2669 89 
L 4186 4166 
L 4192 4166 
L 4192 438 
C 4192 153 4122 153 3680 153 
L 3680 -13 
C 3853 0 4198 0 4384 0 
C 4570 0 4922 0 5094 -13 
L 5094 153 
C 4653 153 4582 153 4582 438 
L 4582 3875 
C 4582 4160 4653 4160 5094 4160 
L 5094 4320 
L 4282 4320 
C 4147 4320 4141 4314 4102 4218 
L 2720 502 
L 1338 4224 
z
" id="CMR17-4d" transform="scale(0.015625)"/>
       <path d="M 2509 2146 
C 3117 2268 3629 2676 3629 3186 
C 3629 3785 2950 4326 2054 4326 
L 333 4326 
L 333 4160 
C 774 4160 845 4160 845 3873 
L 845 415 
C 845 128 774 128 333 128 
L 333 -26 
C 518 -26 851 -26 1050 -26 
C 1248 -26 1581 -26 1766 -26 
L 1766 128 
C 1325 128 1254 128 1254 417 
L 1254 2112 
L 2003 2112 
C 2368 2112 2573 1964 2662 1881 
C 2918 1632 2918 1459 2918 1024 
C 2918 595 2918 377 3110 160 
C 3354 -102 3680 -128 3821 -128 
C 4294 -128 4365 396 4365 503 
C 4365 540 4365 585 4307 585 
C 4256 585 4250 547 4250 522 
C 4218 112 4032 -26 3834 -26 
C 3482 -26 3443 375 3405 764 
C 3386 898 3373 993 3360 1133 
C 3322 1452 3270 1917 2509 2146 
z
M 1984 2214 
L 1254 2214 
L 1254 3913 
C 1254 4129 1267 4160 1523 4160 
L 1990 4160 
C 2522 4160 3142 3977 3142 3190 
C 3142 2372 2464 2214 1984 2214 
z
" id="CMR17-52" transform="scale(0.015625)"/>
       <path d="M 3974 4289 
C 3974 4403 3968 4410 3930 4410 
C 3904 4410 3898 4403 3853 4327 
L 3571 3792 
C 3258 4187 2874 4416 2381 4416 
C 1286 4416 294 3456 294 2148 
C 294 826 1286 -128 2387 -128 
C 3366 -128 3974 730 3974 1461 
C 3974 1524 3974 1550 3917 1550 
C 3866 1550 3866 1531 3859 1474 
C 3808 585 3168 38 2477 38 
C 1824 38 781 495 781 2147 
C 781 3805 1843 4250 2464 4250 
C 3187 4250 3712 3628 3834 2745 
C 3846 2668 3846 2655 3904 2655 
C 3974 2655 3974 2668 3974 2783 
L 3974 4289 
z
" id="CMR17-43" transform="scale(0.015625)"/>
       <path d="M 1261 3905 
C 1261 4192 1338 4192 1798 4192 
L 1798 4352 
C 1594 4352 1267 4352 1050 4352 
C 832 4352 506 4352 301 4352 
L 301 4192 
C 762 4192 838 4192 838 3905 
L 838 447 
C 838 160 762 160 301 160 
L 301 0 
C 506 0 832 0 1050 0 
C 1267 0 1594 0 1798 0 
L 1798 160 
C 1338 160 1261 160 1261 447 
L 1261 3905 
z
" id="CMR17-49" transform="scale(0.015625)"/>
       <path d="M 2413 1472 
L 4109 1472 
C 4198 1472 4307 1472 4307 1580 
C 4307 1695 4205 1695 4109 1695 
L 2413 1695 
L 2413 3386 
C 2413 3475 2413 3584 2304 3584 
C 2189 3584 2189 3482 2189 3386 
L 2189 1695 
L 493 1695 
C 403 1695 294 1695 294 1587 
C 294 1472 397 1472 493 1472 
L 2189 1472 
L 2189 -218 
C 2189 -307 2189 -416 2298 -416 
C 2413 -416 2413 -314 2413 -218 
L 2413 1472 
z
" id="CMR17-2b" transform="scale(0.015625)"/>
       <path d="M 3027 83 
C 3789 408 4307 1236 4307 2193 
C 4307 3499 3366 4480 2304 4480 
C 1216 4480 294 3488 294 2199 
C 294 928 1216 -64 2304 -64 
C 2451 -64 2656 -45 2899 38 
C 3008 -747 3078 -1216 3629 -1216 
C 4307 -1216 4339 -213 4339 -33 
C 4339 32 4339 76 4294 76 
C 4262 76 4256 31 4256 18 
C 4211 -603 3866 -732 3661 -732 
C 3283 -732 3149 -394 3027 83 
z
M 1958 100 
C 1293 310 768 1017 768 2199 
C 768 3711 1606 4365 2298 4365 
C 3014 4365 3834 3686 3834 2198 
C 3834 1124 3405 527 2976 254 
C 2880 579 2726 960 2310 960 
C 2003 960 1830 692 1830 450 
C 1830 304 1888 183 1958 100 
z
M 2874 192 
C 2618 57 2413 57 2304 57 
C 2016 57 1933 315 1933 454 
C 1933 650 2067 858 2310 858 
C 2720 858 2822 493 2874 192 
z
" id="CMR17-51" transform="scale(0.015625)"/>
       <path d="M 3482 4325 
L 326 4325 
L 326 4160 
C 768 4160 838 4160 838 3874 
L 838 446 
C 838 160 768 160 326 160 
L 326 0 
C 512 0 870 0 1069 0 
C 1331 0 1638 0 1901 0 
L 1901 160 
L 1760 160 
C 1274 160 1261 223 1261 452 
L 1261 2075 
L 1837 2075 
C 2432 2075 2490 1865 2490 1332 
L 2605 1332 
L 2605 2987 
L 2490 2987 
C 2490 2450 2432 2240 1837 2240 
L 1261 2240 
L 1261 3911 
C 1261 4128 1274 4160 1530 4160 
L 2355 4160 
C 3322 4160 3430 3765 3520 2916 
L 3635 2916 
L 3482 4325 
z
" id="CMR17-46" transform="scale(0.015625)"/>
       <path d="M 333 4352 
L 333 4186 
C 774 4186 845 4186 845 3900 
L 845 452 
C 845 166 774 166 333 166 
L 333 0 
L 2534 0 
C 3354 0 3885 583 3885 1164 
C 3885 1741 3360 2233 2675 2233 
C 3290 2356 3718 2771 3718 3264 
C 3718 3802 3194 4352 2368 4352 
L 333 4352 
z
M 1248 2304 
L 1248 3937 
C 1248 4155 1261 4186 1517 4186 
L 2336 4186 
C 2970 4186 3251 3674 3251 3277 
C 3251 2791 2861 2304 2170 2304 
L 1248 2304 
z
M 1517 166 
C 1261 166 1248 197 1248 413 
L 1248 2202 
L 2432 2202 
C 3091 2202 3411 1625 3411 1162 
C 3411 699 3046 166 2349 166 
L 1517 166 
z
" id="CMR17-42" transform="scale(0.015625)"/>
       <path d="M 2803 4290 
C 2803 4404 2797 4411 2758 4411 
C 2720 4411 2707 4385 2682 4328 
L 2490 3907 
C 2246 4257 1875 4416 1472 4416 
C 819 4416 294 3901 294 3253 
C 294 3056 339 2776 557 2510 
C 794 2218 1018 2167 1530 2033 
C 1722 1982 2042 1899 2106 1874 
C 2470 1722 2662 1341 2662 985 
C 2662 527 2336 38 1779 38 
C 1094 38 454 419 410 1311 
C 403 1413 397 1419 352 1419 
C 301 1419 294 1413 294 1285 
L 294 -1 
C 294 -115 301 -122 339 -122 
C 384 -122 397 -90 486 108 
C 493 127 493 140 614 381 
C 934 -39 1472 -128 1779 -128 
C 2477 -128 2970 451 2970 1124 
C 2970 1454 2848 1708 2778 1823 
C 2509 2230 2221 2306 1914 2382 
C 1869 2402 1856 2402 1498 2490 
C 1152 2579 1005 2624 845 2796 
C 666 2992 602 3196 602 3399 
C 602 3812 934 4263 1478 4263 
C 2157 4263 2579 3786 2675 2993 
C 2694 2878 2701 2872 2746 2872 
C 2803 2872 2803 2891 2803 2999 
L 2803 4290 
z
" id="CMR17-53" transform="scale(0.015625)"/>
      </defs>
      <use transform="scale(0.996264)" xlink:href="#CMR17-4d"/>
      <use transform="translate(84.686941 0)scale(0.996264)" xlink:href="#CMR17-52"/>
      <use transform="translate(149.875589 0)scale(0.996264)" xlink:href="#CMR17-43"/>
      <use transform="translate(216.385469 0)scale(0.996264)" xlink:href="#CMR17-49"/>
      <use transform="translate(249.023878 0)scale(0.996264)" xlink:href="#CMR17-2b"/>
      <use transform="translate(320.738667 0)scale(0.996264)" xlink:href="#CMR17-51"/>
      <use transform="translate(392.453455 0)scale(0.996264)" xlink:href="#CMR17-2b"/>
      <use transform="translate(464.168244 0)scale(0.996264)" xlink:href="#CMR17-46"/>
      <use transform="translate(524.15209 0)scale(0.996264)" xlink:href="#CMR17-31"/>
      <use transform="translate(569.842567 0)scale(0.996264)" xlink:href="#CMR17-32"/>
      <use transform="translate(645.609011 0)scale(0.996264)" xlink:href="#CMR17-43"/>
      <use transform="translate(712.118891 0)scale(0.996264)" xlink:href="#CMR17-42"/>
      <use transform="translate(777.307646 0)scale(0.996264)" xlink:href="#CMR17-53"/>
     </g>
    </g>
    <g id="line2d_22">
     <path d="M 50.468426 21.869746 
L 66.468426 21.869746 
" style="fill:none;stroke:#8c564b;stroke-dasharray:1.5,2.475;stroke-dashoffset:0;stroke-width:1.5;"/>
    </g>
    <g id="line2d_23">
     <g>
      <use style="fill:#8c564b;stroke:#8c564b;" x="58.468426" xlink:href="#m816471f7f0" y="21.869746"/>
     </g>
    </g>
    <g id="text_15">
     <!-- AFQMC CBS -->
     <g transform="translate(72.868426 24.669746)scale(0.08 -0.08)">
      <defs>
       <path d="M 2323 4378 
C 2291 4461 2278 4480 2214 4480 
C 2150 4480 2138 4461 2106 4378 
L 749 566 
C 627 223 371 153 147 153 
L 147 -13 
C 262 0 518 0 640 0 
C 800 0 1056 0 1210 -13 
L 1210 153 
C 909 153 864 361 864 439 
C 864 497 877 530 890 569 
L 1229 1536 
L 2906 1536 
L 3290 442 
C 3322 365 3322 352 3322 327 
C 3322 153 3046 153 2925 153 
L 2925 0 
C 3110 0 3443 0 3642 0 
C 3808 0 4128 0 4282 -13 
L 4282 153 
C 3942 153 3827 153 3744 387 
L 2323 4378 
z
M 2067 3893 
L 2848 1702 
L 1286 1702 
L 2067 3893 
z
" id="CMR17-41" transform="scale(0.015625)"/>
      </defs>
      <use transform="scale(0.996264)" xlink:href="#CMR17-41"/>
      <use transform="translate(69.07243 0)scale(0.996264)" xlink:href="#CMR17-46"/>
      <use transform="translate(126.453822 0)scale(0.996264)" xlink:href="#CMR17-51"/>
      <use transform="translate(198.168611 0)scale(0.996264)" xlink:href="#CMR17-4d"/>
      <use transform="translate(282.855551 0)scale(0.996264)" xlink:href="#CMR17-43"/>
      <use transform="translate(379.441398 0)scale(0.996264)" xlink:href="#CMR17-43"/>
      <use transform="translate(445.951279 0)scale(0.996264)" xlink:href="#CMR17-42"/>
      <use transform="translate(511.140033 0)scale(0.996264)" xlink:href="#CMR17-53"/>
     </g>
    </g>
    <g id="line2d_24">
     <path d="M 50.468426 33.019491 
L 66.468426 33.019491 
" style="fill:none;stroke:#e377c2;stroke-dasharray:1.5,2.475;stroke-dashoffset:0;stroke-width:1.5;"/>
    </g>
    <g id="line2d_25">
     <g>
      <use style="fill:#e377c2;stroke:#e377c2;stroke-linejoin:miter;" x="58.468426" xlink:href="#mb2f1da5ef2" y="33.019491"/>
     </g>
    </g>
    <g id="text_16">
     <!-- UCCSD CBS -->
     <g transform="translate(72.868426 35.819491)scale(0.08 -0.08)">
      <defs>
       <path d="M 3456 1433 
C 3456 579 2899 38 2291 38 
C 1965 38 1670 210 1491 477 
C 1286 783 1261 1178 1261 1401 
L 1261 3874 
C 1261 4160 1331 4160 1773 4160 
L 1773 4320 
C 1587 4320 1248 4320 1050 4320 
C 851 4320 512 4320 326 4320 
L 326 4160 
C 768 4160 838 4160 838 3874 
L 838 1433 
C 838 516 1536 -128 2278 -128 
C 3110 -128 3590 719 3590 1344 
L 3590 3766 
C 3590 4122 3917 4160 4102 4160 
L 4102 4326 
C 3955 4320 3686 4320 3526 4320 
C 3366 4320 3091 4320 2944 4326 
L 2944 4160 
C 3456 4160 3456 3861 3456 3702 
L 3456 1433 
z
" id="CMR17-55" transform="scale(0.015625)"/>
       <path d="M 333 4352 
L 333 4186 
C 774 4186 845 4186 845 3900 
L 845 452 
C 845 166 774 166 333 166 
L 333 0 
L 2368 0 
C 3398 0 4224 943 4224 2141 
C 4224 3346 3411 4352 2368 4352 
L 333 4352 
z
M 1523 166 
C 1267 166 1254 197 1254 414 
L 1254 3938 
C 1254 4155 1267 4186 1523 4186 
L 2240 4186 
C 2771 4186 3750 3874 3750 2141 
C 3750 1242 3488 879 3366 707 
C 3213 510 2848 166 2240 166 
L 1523 166 
z
" id="CMR17-44" transform="scale(0.015625)"/>
      </defs>
      <use transform="scale(0.996264)" xlink:href="#CMR17-55"/>
      <use transform="translate(69.07243 0)scale(0.996264)" xlink:href="#CMR17-43"/>
      <use transform="translate(135.58231 0)scale(0.996264)" xlink:href="#CMR17-43"/>
      <use transform="translate(202.092191 0)scale(0.996264)" xlink:href="#CMR17-53"/>
      <use transform="translate(252.987561 0)scale(0.996264)" xlink:href="#CMR17-44"/>
      <use transform="translate(353.457083 0)scale(0.996264)" xlink:href="#CMR17-43"/>
      <use transform="translate(419.966963 0)scale(0.996264)" xlink:href="#CMR17-42"/>
      <use transform="translate(485.155718 0)scale(0.996264)" xlink:href="#CMR17-53"/>
     </g>
    </g>
    <g id="line2d_26">
     <path d="M 50.468426 44.546821 
L 66.468426 44.546821 
" style="fill:none;stroke:#7f7f7f;stroke-dasharray:1.5,2.475;stroke-dashoffset:0;stroke-width:1.5;"/>
    </g>
    <g id="line2d_27">
     <g>
      <use style="fill:#7f7f7f;stroke:#7f7f7f;stroke-linejoin:miter;" x="58.468426" xlink:href="#m3418fef75e" y="44.546821"/>
     </g>
    </g>
    <g id="text_17">
     <!-- UCCSD(T) CBS -->
     <g transform="translate(72.868426 47.346821)scale(0.08 -0.08)">
      <defs>
       <path d="M 1958 -1561 
C 1958 -1555 1958 -1542 1939 -1523 
C 1645 -1224 858 -407 858 1581 
C 858 3569 1632 4379 1946 4697 
C 1946 4704 1958 4717 1958 4736 
C 1958 4755 1939 4768 1914 4768 
C 1843 4768 1299 4296 986 3594 
C 666 2887 576 2199 576 1588 
C 576 1128 621 351 1005 -471 
C 1312 -1135 1837 -1600 1914 -1600 
C 1946 -1600 1958 -1587 1958 -1561 
z
" id="CMR17-28" transform="scale(0.015625)"/>
       <path d="M 3981 4326 
L 288 4326 
L 179 2918 
L 294 2918 
C 378 3976 467 4160 1453 4160 
C 1568 4160 1754 4160 1805 4154 
C 1926 4135 1926 4058 1926 3912 
L 1926 459 
C 1926 230 1907 160 1376 160 
L 1197 160 
L 1197 0 
C 1504 0 1824 0 2138 0 
C 2451 0 2771 0 3078 0 
L 3078 160 
L 2899 160 
C 2368 160 2349 230 2349 459 
L 2349 3912 
C 2349 4052 2349 4129 2464 4154 
C 2515 4160 2701 4160 2816 4160 
C 3795 4160 3891 3976 3974 2918 
L 4090 2918 
L 3981 4326 
z
" id="CMR17-54" transform="scale(0.015625)"/>
       <path d="M 1683 1581 
C 1683 2040 1638 2817 1254 3639 
C 947 4303 422 4768 346 4768 
C 326 4768 301 4761 301 4729 
C 301 4717 307 4710 314 4697 
C 621 4378 1402 3568 1402 1584 
C 1402 -407 627 -1217 314 -1537 
C 307 -1549 301 -1556 301 -1568 
C 301 -1600 326 -1600 346 -1600 
C 416 -1600 960 -1128 1274 -426 
C 1594 281 1683 969 1683 1581 
z
" id="CMR17-29" transform="scale(0.015625)"/>
      </defs>
      <use transform="scale(0.996264)" xlink:href="#CMR17-55"/>
      <use transform="translate(69.07243 0)scale(0.996264)" xlink:href="#CMR17-43"/>
      <use transform="translate(135.58231 0)scale(0.996264)" xlink:href="#CMR17-43"/>
      <use transform="translate(202.092191 0)scale(0.996264)" xlink:href="#CMR17-53"/>
      <use transform="translate(252.987561 0)scale(0.996264)" xlink:href="#CMR17-44"/>
      <use transform="translate(323.381117 0)scale(0.996264)" xlink:href="#CMR17-28"/>
      <use transform="translate(358.661884 0)scale(0.996264)" xlink:href="#CMR17-54"/>
      <use transform="translate(425.171765 0)scale(0.996264)" xlink:href="#CMR17-29"/>
      <use transform="translate(490.528499 0)scale(0.996264)" xlink:href="#CMR17-43"/>
      <use transform="translate(557.03838 0)scale(0.996264)" xlink:href="#CMR17-42"/>
      <use transform="translate(622.227134 0)scale(0.996264)" xlink:href="#CMR17-53"/>
     </g>
    </g>
   </g>
   <g id="legend_2">
    <g id="patch_8">
     <path d="M 250.139375 51.718983 
L 316.668426 51.718983 
Q 318.268426 51.718983 318.268426 50.118983 
L 318.268426 6.32 
Q 318.268426 4.72 316.668426 4.72 
L 250.139375 4.72 
Q 248.539375 4.72 248.539375 6.32 
L 248.539375 50.118983 
Q 248.539375 51.718983 250.139375 51.718983 
z
" style="fill:#ffffff;opacity:0.8;stroke:#cccccc;stroke-linejoin:miter;"/>
    </g>
    <g id="line2d_28">
     <path d="M 251.739375 10.72 
L 267.739375 10.72 
" style="fill:none;stroke:#d62728;stroke-dasharray:5.55,2.4;stroke-dashoffset:0;stroke-width:1.5;"/>
    </g>
    <g id="line2d_29">
     <g>
      <use style="fill:#d62728;stroke:#d62728;stroke-linejoin:miter;" x="259.739375" xlink:href="#m07e777028a" y="10.72"/>
     </g>
    </g>
    <g id="text_18">
     <!-- DeepErwin -->
     <g transform="translate(274.139375 13.52)scale(0.08 -0.08)">
      <defs>
       <path d="M 3885 1615 
L 3770 1615 
C 3629 676 3546 166 2419 166 
L 1530 166 
C 1274 166 1261 197 1261 414 
L 1261 2176 
L 1862 2176 
C 2464 2176 2522 1960 2522 1430 
L 2637 1430 
L 2637 3081 
L 2522 3081 
C 2522 2557 2464 2342 1862 2342 
L 1261 2342 
L 1261 3913 
C 1261 4128 1274 4160 1530 4160 
L 2406 4160 
C 3398 4160 3514 3769 3603 2929 
L 3718 2929 
L 3565 4325 
L 326 4325 
L 326 4160 
C 768 4160 838 4160 838 3874 
L 838 451 
C 838 166 768 166 326 166 
L 326 0 
L 3654 0 
L 3885 1615 
z
" id="CMR17-45" transform="scale(0.015625)"/>
       <path d="M 3725 2183 
C 3853 2560 4109 2560 4205 2560 
L 4205 2732 
C 4077 2732 3949 2732 3821 2732 
C 3699 2732 3424 2732 3315 2738 
L 3315 2560 
C 3514 2560 3622 2445 3622 2286 
C 3622 2241 3610 2184 3597 2140 
L 2995 407 
L 2342 2275 
C 2330 2319 2310 2370 2310 2395 
C 2310 2560 2528 2560 2630 2560 
L 2630 2738 
C 2483 2732 2214 2732 2061 2732 
C 1901 2732 1734 2732 1587 2738 
L 1587 2560 
C 1939 2560 1939 2547 2074 2149 
L 1485 451 
L 851 2281 
C 819 2363 819 2376 819 2395 
C 819 2560 1037 2560 1139 2560 
L 1139 2738 
C 986 2732 717 2732 557 2732 
C 416 2732 198 2732 64 2738 
L 64 2560 
C 346 2560 416 2541 486 2331 
L 1274 49 
C 1299 -33 1318 -52 1370 -52 
C 1414 -52 1440 -39 1472 56 
L 2131 1980 
L 2797 56 
C 2829 -39 2854 -52 2899 -52 
C 2950 -52 2970 -33 2995 50 
L 3725 2183 
z
" id="CMR17-77" transform="scale(0.015625)"/>
      </defs>
      <use transform="scale(0.996264)" xlink:href="#CMR17-44"/>
      <use transform="translate(70.393556 0)scale(0.996264)" xlink:href="#CMR17-65"/>
      <use transform="translate(110.879216 0)scale(0.996264)" xlink:href="#CMR17-65"/>
      <use transform="translate(151.364877 0)scale(0.996264)" xlink:href="#CMR17-70"/>
      <use transform="translate(202.260247 0)scale(0.996264)" xlink:href="#CMR17-45"/>
      <use transform="translate(264.846547 0)scale(0.996264)" xlink:href="#CMR17-72"/>
      <use transform="translate(300.127315 0)scale(0.996264)" xlink:href="#CMR17-77"/>
      <use transform="translate(366.637195 0)scale(0.996264)" xlink:href="#CMR17-69"/>
      <use transform="translate(391.508254 0)scale(0.996264)" xlink:href="#CMR17-6e"/>
     </g>
    </g>
    <g id="line2d_30">
     <path d="M 251.739375 21.869746 
L 267.739375 21.869746 
" style="fill:none;stroke:#2ca02c;stroke-dasharray:5.55,2.4;stroke-dashoffset:0;stroke-width:1.5;"/>
    </g>
    <g id="line2d_31">
     <g>
      <use style="fill:#2ca02c;stroke:#2ca02c;stroke-linejoin:miter;" x="259.739375" xlink:href="#mbeae850084" y="21.869746"/>
     </g>
    </g>
    <g id="text_19">
     <!-- PauliNet -->
     <g transform="translate(274.139375 24.669746)scale(0.08 -0.08)">
      <defs>
       <path d="M 1267 2042 
L 2291 2042 
C 3117 2042 3718 2578 3718 3184 
C 3718 3791 3130 4352 2291 4352 
L 333 4352 
L 333 4186 
C 774 4186 845 4186 845 3899 
L 845 446 
C 845 160 774 160 333 160 
L 333 0 
C 518 0 858 0 1056 0 
C 1254 0 1594 0 1779 0 
L 1779 160 
C 1338 160 1267 160 1267 446 
L 1267 2042 
z
M 1254 2176 
L 1254 3938 
C 1254 4155 1267 4186 1523 4186 
L 2170 4186 
C 2995 4186 3232 3714 3232 3184 
C 3232 2604 2950 2176 2170 2176 
L 1254 2176 
z
" id="CMR17-50" transform="scale(0.015625)"/>
       <path d="M 1882 2693 
L 1882 2528 
C 2259 2528 2317 2489 2317 2186 
L 2317 1032 
C 2317 500 2029 38 1555 38 
C 1030 38 986 348 986 678 
L 986 2763 
L 211 2693 
L 211 2528 
C 467 2528 640 2528 646 2274 
L 646 1058 
C 646 633 646 361 813 183 
C 896 101 1056 -64 1517 -64 
C 2061 -64 2272 377 2323 506 
L 2330 506 
L 2330 -63 
L 3091 -63 
L 3091 128 
C 2714 128 2656 166 2656 473 
L 2656 2763 
L 1882 2693 
z
" id="CMR17-75" transform="scale(0.015625)"/>
       <path d="M 979 4396 
L 218 4326 
L 218 4160 
C 595 4160 653 4122 653 3817 
L 653 426 
C 653 184 627 153 218 153 
L 218 -13 
C 371 0 653 0 813 0 
C 979 0 1261 0 1414 -13 
L 1414 153 
C 1005 153 979 178 979 426 
L 979 4396 
z
" id="CMR17-6c" transform="scale(0.015625)"/>
       <path d="M 1312 4250 
C 1267 4320 1261 4320 1139 4320 
L 326 4320 
L 326 4160 
L 448 4160 
C 704 4160 819 4129 838 4122 
L 838 610 
C 838 451 838 153 326 153 
L 326 -13 
C 474 0 742 0 902 0 
C 1062 0 1331 0 1478 -13 
L 1478 153 
C 966 153 966 451 966 610 
L 966 4033 
C 1011 3995 1011 3982 1056 3919 
L 3430 76 
C 3475 0 3494 0 3526 0 
C 3590 0 3590 19 3590 139 
L 3590 3705 
C 3590 3863 3590 4160 4102 4160 
L 4102 4326 
C 3955 4320 3686 4320 3526 4320 
C 3366 4320 3098 4320 2950 4326 
L 2950 4160 
C 3462 4160 3462 3862 3462 3703 
L 3462 763 
L 1312 4250 
z
" id="CMR17-4e" transform="scale(0.015625)"/>
      </defs>
      <use transform="scale(0.996264)" xlink:href="#CMR17-50"/>
      <use transform="translate(59.983847 0)scale(0.996264)" xlink:href="#CMR17-61"/>
      <use transform="translate(105.674324 0)scale(0.996264)" xlink:href="#CMR17-75"/>
      <use transform="translate(156.569693 0)scale(0.996264)" xlink:href="#CMR17-6c"/>
      <use transform="translate(181.440752 0)scale(0.996264)" xlink:href="#CMR17-69"/>
      <use transform="translate(206.31181 0)scale(0.996264)" xlink:href="#CMR17-4e"/>
      <use transform="translate(275.38424 0)scale(0.996264)" xlink:href="#CMR17-65"/>
      <use transform="translate(315.869901 0)scale(0.996264)" xlink:href="#CMR17-74"/>
     </g>
    </g>
    <g id="line2d_32">
     <path d="M 251.739375 33.019491 
L 267.739375 33.019491 
" style="fill:none;stroke:#ff7f0e;stroke-dasharray:5.55,2.4;stroke-dashoffset:0;stroke-width:1.5;"/>
    </g>
    <g id="line2d_33">
     <g>
      <use style="fill:#ff7f0e;stroke:#ff7f0e;stroke-linejoin:miter;" x="259.739375" xlink:href="#m7cc2f9a857" y="33.019491"/>
     </g>
    </g>
    <g id="text_20">
     <!-- FermiNet -->
     <g transform="translate(274.139375 35.819491)scale(0.08 -0.08)">
      <defs>
       <path d="M 4326 1933 
C 4326 2252 4269 2790 3507 2790 
C 3072 2790 2771 2496 2656 2151 
L 2650 2151 
C 2573 2676 2195 2790 1837 2790 
C 1331 2790 1069 2400 973 2144 
L 966 2144 
L 966 2790 
L 211 2720 
L 211 2554 
C 589 2554 646 2515 646 2208 
L 646 428 
C 646 184 621 153 211 153 
L 211 -13 
C 365 0 646 0 813 0 
C 979 0 1267 0 1421 -13 
L 1421 153 
C 1011 153 986 178 986 428 
L 986 1658 
C 986 2247 1344 2688 1792 2688 
C 2266 2688 2317 2266 2317 1958 
L 2317 428 
C 2317 184 2291 153 1882 153 
L 1882 -13 
C 2035 0 2317 0 2483 0 
C 2650 0 2938 0 3091 -13 
L 3091 153 
C 2682 153 2656 178 2656 428 
L 2656 1658 
C 2656 2247 3014 2688 3462 2688 
C 3936 2688 3987 2266 3987 1958 
L 3987 428 
C 3987 184 3962 153 3552 153 
L 3552 -13 
C 3706 0 3987 0 4154 0 
C 4320 0 4608 0 4762 -13 
L 4762 153 
C 4352 153 4326 178 4326 428 
L 4326 1933 
z
" id="CMR17-6d" transform="scale(0.015625)"/>
      </defs>
      <use transform="scale(0.996264)" xlink:href="#CMR17-46"/>
      <use transform="translate(52.176591 0)scale(0.996264)" xlink:href="#CMR17-65"/>
      <use transform="translate(92.662252 0)scale(0.996264)" xlink:href="#CMR17-72"/>
      <use transform="translate(127.943019 0)scale(0.996264)" xlink:href="#CMR17-6d"/>
      <use transform="translate(204.862609 0)scale(0.996264)" xlink:href="#CMR17-69"/>
      <use transform="translate(229.733668 0)scale(0.996264)" xlink:href="#CMR17-4e"/>
      <use transform="translate(298.806098 0)scale(0.996264)" xlink:href="#CMR17-65"/>
      <use transform="translate(339.291758 0)scale(0.996264)" xlink:href="#CMR17-74"/>
     </g>
    </g>
    <g id="line2d_34">
     <path d="M 251.739375 44.169237 
L 267.739375 44.169237 
" style="fill:none;stroke:#1f77b4;stroke-dasharray:5.55,2.4;stroke-dashoffset:0;stroke-width:1.5;"/>
    </g>
    <g id="line2d_35">
     <g>
      <use style="fill:#1f77b4;stroke:#1f77b4;stroke-linejoin:miter;" x="259.739375" xlink:href="#m592d7260d9" y="44.169237"/>
     </g>
    </g>
    <g id="text_21">
     <!-- PESNet -->
     <g transform="translate(274.139375 46.969237)scale(0.08 -0.08)">
      <use transform="scale(0.996264)" xlink:href="#CMR17-50"/>
      <use transform="translate(62.586301 0)scale(0.996264)" xlink:href="#CMR17-45"/>
      <use transform="translate(125.172601 0)scale(0.996264)" xlink:href="#CMR17-53"/>
      <use transform="translate(176.067971 0)scale(0.996264)" xlink:href="#CMR17-4e"/>
      <use transform="translate(245.140401 0)scale(0.996264)" xlink:href="#CMR17-65"/>
      <use transform="translate(285.626061 0)scale(0.996264)" xlink:href="#CMR17-74"/>
     </g>
    </g>
   </g>
  </g>
 </g>
 <defs>
  <clipPath id="p7d34bba433">
   <rect height="163.08" width="279" x="43.268426" y="0.72"/>
  </clipPath>
 </defs>
</svg>
